# xmcd
#
# Track frame offsets: 
#        150
#        27677
#        45429
#        67542
#        85910
#        103580
#        122455
#        139736
#        165566
#
# Disc length: 2456 seconds
#
# Revision: 4
# Processed by: cddbd v1.5.2PL0 Copyright (c) Steve Scherf et al.
# Submitted via: ExactAudioCopyFreeDBPlugin 1.0
#
DISCID=69099609
DTITLE=Psycroptic - The Inherited Repression
DYEAR=2012
DGENRE=Technical Death Metal
TTITLE0=Carriers Of The Plague
TTITLE1=Forward To Submission
TTITLE2=Euphorinasia
TTITLE3=The Throne Of Kings
TTITLE4=Unmasking The Traitors
TTITLE5=Become The Cult
TTITLE6=From Scribe To Ashes
TTITLE7=Deprivation
TTITLE8=The Sleepers Have Awoken
EXTD=
EXTT0=
EXTT1=
EXTT2=
EXTT3=
EXTT4=
EXTT5=
EXTT6=
EXTT7=
EXTT8=
PLAYORDER=
